# WaveFront *.obj file (generated by Autodesk ATF)

mtllib breaker_box_lid.mtl

g breaker_box_lid

v 22.250000 -18.893081 45.694001
v 22.250000 -16.993081 45.694001
v 22.250000 -16.993081 63.439151
v 22.250000 37.092837 63.439151
v 22.250000 37.092837 0.259997
v 22.250000 37.092837 -62.919158
v 22.250000 -16.993081 -62.919158
v 22.250000 -16.993081 -45.000001
v 22.250000 -18.893081 -45.000001
v 24.750000 -18.893081 45.694001
v 24.750000 -18.893081 -45.000001
v 24.750000 -20.893081 -45.000001
v 24.750000 -20.893081 -64.919158
v 24.750000 39.092837 -64.919158
v 24.750000 39.092837 0.259997
v 24.750000 39.092837 65.439151
v 24.750000 -20.893081 65.439151
v 24.750000 -20.893081 45.694001
v 19.750000 -16.993081 -45.000001
v 19.750000 -20.893081 -45.000001
v 19.750000 -16.993081 -62.919158
v 19.750000 -16.993081 45.694001
v 19.750000 -16.993081 63.439151
v 19.750000 -20.893081 45.694001
v 19.750000 -20.893081 65.439151
v 19.750000 39.092837 65.439151
v 19.750000 39.092837 0.259997
v 19.750000 39.092837 -64.919158
v 19.750000 -20.893081 -64.919158
v 19.750000 37.092837 -62.919158
v 19.750000 37.092837 0.259997
v 19.750000 37.092837 63.439151
vt 2.799296 4.543400 0.000000
vt 2.609296 4.543400 0.000000
vt 2.799296 -4.526000 0.000000
vt 2.609296 -4.526000 0.000000
vt -2.799296 0.000000 0.000000
vt -2.799296 -6.317915 0.000000
vt 2.609296 6.317915 0.000000
vt -2.799296 6.317915 0.000000
vt 2.609296 -6.317915 0.000000
vt 1.774515 0.000000 0.000000
vt 10.843915 0.000000 0.000000
vt 1.774515 0.250000 0.000000
vt 10.843915 0.250000 0.000000
vt 4.526000 -2.799296 0.000000
vt 0.000000 2.999296 0.000000
vt -4.543400 -2.799296 0.000000
vt -6.517915 2.999296 0.000000
vt -6.517915 -2.999296 0.000000
vt 4.526000 -2.999296 0.000000
vt 6.517915 -2.999296 0.000000
vt 6.517915 2.999296 0.000000
vt -4.543400 -2.999296 0.000000
vt 0.000000 0.250000 0.000000
vt 0.000000 0.000000 0.000000
vt 0.200000 0.250000 0.000000
vt 0.200000 -0.250000 0.000000
vt -0.190000 -0.250000 0.000000
vt -0.190000 0.000000 0.000000
vt 1.791916 0.000000 0.000000
vt 0.000000 0.000000 0.000000
vt 1.791916 -0.250000 0.000000
vt 0.000000 -0.250000 0.000000
vt 1.774515 0.000000 0.000000
vt 0.000000 0.000000 0.000000
vt 1.774515 -0.250000 0.000000
vt 0.000000 -0.250000 0.000000
vt 4.543400 -2.609296 0.000000
vt 4.543400 -2.999296 0.000000
vt 6.317915 -2.609296 0.000000
vt 6.517915 -2.999296 0.000000
vt 6.517915 2.999296 0.000000
vt 6.317915 2.799296 0.000000
vt 0.000000 2.999296 0.000000
vt 0.000000 2.799296 0.000000
vt -6.317915 2.799296 0.000000
vt -6.517915 2.999296 0.000000
vt -6.317915 -2.609296 0.000000
vt -6.517915 -2.999296 0.000000
vt -4.526000 -2.999296 0.000000
vt -4.526000 -2.609296 0.000000
vt 0.200000 0.250000 0.000000
vt 0.000000 0.250000 0.000000
vt 0.200000 0.000000 0.000000
vt 0.000000 -0.250000 0.000000
vt 0.390000 -0.250000 0.000000
vt 0.390000 0.000000 0.000000
vt 1.974515 0.250000 0.000000
vt -0.000000 0.250000 0.000000
vt 1.974515 -0.250000 0.000000
vt 0.000000 -0.250000 0.000000
vt 5.998592 0.250000 0.000000
vt -0.000000 0.250000 0.000000
vt 5.998592 -0.250000 0.000000
vt 0.000000 -0.250000 0.000000
vt 13.035831 0.250000 0.000000
vt 6.517915 0.250000 0.000000
vt 13.035831 -0.250000 0.000000
vt 6.517915 -0.250000 0.000000
vt -0.000000 0.250000 0.000000
vt -0.000000 -0.250000 0.000000
vt 5.998592 0.250000 0.000000
vt 0.000000 0.250000 0.000000
vt 5.998592 -0.250000 0.000000
vt 0.000000 -0.250000 0.000000
vt 1.991916 0.250000 0.000000
vt -0.000000 0.250000 0.000000
vt 1.991916 -0.250000 0.000000
vt 0.000000 -0.250000 0.000000
vt 0.000000 0.000000 0.000000
vt 0.000000 -0.250000 0.000000
vt 5.408592 0.000000 0.000000
vt 5.408592 -0.250000 0.000000
vt 12.635831 0.000000 0.000000
vt 6.317915 0.000000 0.000000
vt 12.635831 -0.250000 0.000000
vt 6.317915 -0.250000 0.000000
vt 0.000000 0.000000 0.000000
vt 0.000000 -0.250000 0.000000
vt 5.598592 0.000000 0.000000
vt 0.190000 0.000000 0.000000
vt 5.598592 -0.250000 0.000000
vt 0.190000 -0.250000 0.000000
vn -0.100000 0.000000 0.000000
vn -0.100000 0.000000 0.000000
vn -0.100000 0.000000 0.000000
vn -0.100000 0.000000 0.000000
vn -0.100000 0.000000 0.000000
vn -0.100000 0.000000 0.000000
vn -0.100000 0.000000 0.000000
vn -0.100000 0.000000 0.000000
vn -0.100000 0.000000 0.000000
vn 0.000000 -0.100000 0.000000
vn 0.000000 -0.100000 0.000000
vn 0.000000 -0.100000 0.000000
vn 0.000000 -0.100000 0.000000
vn 0.100000 0.000000 0.000000
vn 0.100000 0.000000 0.000000
vn 0.100000 0.000000 0.000000
vn 0.100000 0.000000 0.000000
vn 0.100000 0.000000 0.000000
vn 0.100000 0.000000 0.000000
vn 0.100000 0.000000 0.000000
vn 0.100000 0.000000 0.000000
vn 0.100000 0.000000 0.000000
vn 0.000000 0.000000 0.100000
vn 0.000000 0.000000 0.100000
vn 0.000000 0.000000 0.100000
vn 0.000000 0.000000 0.100000
vn 0.000000 0.000000 0.100000
vn 0.000000 0.000000 0.100000
vn 0.000000 0.100000 0.000000
vn 0.000000 0.100000 0.000000
vn 0.000000 0.100000 0.000000
vn 0.000000 0.100000 0.000000
vn 0.000000 0.100000 0.000000
vn 0.000000 0.100000 0.000000
vn 0.000000 0.100000 0.000000
vn 0.000000 0.100000 0.000000
vn -0.100000 0.000000 0.000000
vn -0.100000 0.000000 0.000000
vn -0.100000 0.000000 0.000000
vn -0.100000 0.000000 0.000000
vn -0.100000 0.000000 0.000000
vn -0.100000 0.000000 0.000000
vn -0.100000 0.000000 0.000000
vn -0.100000 0.000000 0.000000
vn -0.100000 0.000000 0.000000
vn -0.100000 0.000000 0.000000
vn -0.100000 0.000000 0.000000
vn -0.100000 0.000000 0.000000
vn -0.100000 0.000000 0.000000
vn -0.100000 0.000000 0.000000
vn 0.000000 0.000000 -0.100000
vn 0.000000 0.000000 -0.100000
vn 0.000000 0.000000 -0.100000
vn 0.000000 0.000000 -0.100000
vn 0.000000 0.000000 -0.100000
vn 0.000000 0.000000 -0.100000
vn 0.000000 -0.100000 0.000000
vn 0.000000 -0.100000 0.000000
vn 0.000000 -0.100000 0.000000
vn 0.000000 -0.100000 0.000000
vn 0.000000 0.000000 0.100000
vn 0.000000 0.000000 0.100000
vn 0.000000 0.000000 0.100000
vn 0.000000 0.000000 0.100000
vn 0.000000 0.100000 0.000000
vn 0.000000 0.100000 0.000000
vn 0.000000 0.100000 0.000000
vn 0.000000 0.100000 0.000000
vn 0.000000 0.100000 0.000000
vn 0.000000 0.100000 0.000000
vn 0.000000 0.000000 -0.100000
vn 0.000000 0.000000 -0.100000
vn 0.000000 0.000000 -0.100000
vn 0.000000 0.000000 -0.100000
vn 0.000000 -0.100000 0.000000
vn 0.000000 -0.100000 0.000000
vn 0.000000 -0.100000 0.000000
vn 0.000000 -0.100000 0.000000
vn 0.000000 0.000000 0.100000
vn 0.000000 0.000000 0.100000
vn 0.000000 0.000000 0.100000
vn 0.000000 0.000000 0.100000
vn 0.000000 -0.100000 0.000000
vn 0.000000 -0.100000 0.000000
vn 0.000000 -0.100000 0.000000
vn 0.000000 -0.100000 0.000000
vn 0.000000 -0.100000 0.000000
vn 0.000000 -0.100000 0.000000
vn 0.000000 0.000000 -0.100000
vn 0.000000 0.000000 -0.100000
vn 0.000000 0.000000 -0.100000
vn 0.000000 0.000000 -0.100000
usemtl Steel_-_Satin
f 1/1/1 2/2/2 9/3/3
f 9/3/3 2/2/2 8/4/4
f 8/4/4 2/2/2 5/5/5
f 8/4/4 5/5/5 6/6/6
f 3/7/7 4/8/8 2/2/2
f 2/2/2 4/8/8 5/5/5
f 6/6/6 7/9/9 8/4/4
f 1/10/10 9/11/11 10/12/12
f 10/12/12 9/11/11 11/13/13
f 11/14/14 15/15/15 10/16/16
f 10/16/16 15/15/15 16/17/17
f 10/16/16 16/17/17 17/18/18
f 12/19/19 13/20/20 11/14/14
f 11/14/14 13/20/20 14/21/21
f 11/14/14 14/21/21 15/15/15
f 17/18/18 18/22/22 10/16/16
f 11/23/23 9/24/24 12/25/25
f 12/25/25 9/24/24 20/26/26
f 20/26/26 9/24/24 19/27/27
f 19/27/27 9/24/24 8/28/28
f 8/29/29 7/30/30 19/31/31
f 19/31/31 7/30/30 21/32/32
f 3/33/33 2/34/34 23/35/35
f 23/35/35 2/34/34 22/36/36
f 22/37/37 24/38/38 23/39/39
f 23/39/39 24/38/38 25/40/40
f 23/39/39 25/40/40 26/41/41
f 23/39/39 26/41/41 32/42/42
f 32/42/42 26/41/41 27/43/43
f 32/42/42 27/43/43 31/44/44
f 31/44/44 27/43/43 30/45/45
f 30/45/45 27/43/43 28/46/46
f 30/45/45 28/46/46 21/47/47
f 21/47/47 28/46/46 29/48/48
f 21/47/47 29/48/48 20/49/49
f 20/49/49 19/50/50 21/47/47
f 10/51/51 18/52/52 1/53/53
f 1/53/53 18/52/52 24/54/54
f 1/53/53 24/54/54 22/55/55
f 22/55/55 2/56/56 1/53/53
f 18/57/57 17/58/58 24/59/59
f 24/59/59 17/58/58 25/60/60
f 17/61/61 16/62/62 25/63/63
f 25/63/63 16/62/62 26/64/64
f 16/65/65 15/66/66 26/67/67
f 26/67/67 15/66/66 27/68/68
f 27/68/68 15/66/66 14/69/69
f 27/68/68 14/69/69 28/70/70
f 14/71/71 13/72/72 28/73/73
f 28/73/73 13/72/72 29/74/74
f 13/75/75 12/76/76 29/77/77
f 29/77/77 12/76/76 20/78/78
f 6/79/79 30/80/80 7/81/81
f 7/81/81 30/80/80 21/82/82
f 6/83/83 5/84/84 30/85/85
f 30/85/85 5/84/84 31/86/86
f 31/86/86 5/84/84 4/87/87
f 31/86/86 4/87/87 32/88/88
f 4/89/89 3/90/90 32/91/91
f 32/91/91 3/90/90 23/92/92
# 32 vertices
# 92 texture params
# 92 normals
# 60 facets

# 1 groups
